<svg width="18" height="20" viewBox="0 0 18 20" fill="none" xmlns="http://www.w3.org/2000/svg">
<path d="M1 9.83539C1 6.50777 1 4.84352 1.9376 3.8102C2.8744 2.776 4.3832 2.776 7.4 2.776H10.6C13.6168 2.776 15.1256 2.776 16.0624 3.8102C17 4.84352 17 6.50777 17 9.83539V11.6002C17 14.9279 17 16.5921 16.0624 17.6254C15.1256 18.6596 13.6168 18.6596 10.6 18.6596H7.4C4.3832 18.6596 2.8744 18.6596 1.9376 17.6254C1 16.5921 1 14.9279 1 11.6002V9.83539Z" stroke="#B3B3B3"/>
<path d="M4.99999 2.77603V1.45239M13 2.77603V1.45239M1.39999 7.18815H16.6" stroke="#B3B3B3" stroke-linecap="round"/>
<path d="M13.8 14.2474C13.8 14.4815 13.7157 14.7059 13.5656 14.8714C13.4156 15.0369 13.2121 15.1299 13 15.1299C12.7878 15.1299 12.5843 15.0369 12.4343 14.8714C12.2842 14.7059 12.2 14.4815 12.2 14.2474C12.2 14.0134 12.2842 13.789 12.4343 13.6235C12.5843 13.458 12.7878 13.365 13 13.365C13.2121 13.365 13.4156 13.458 13.5656 13.6235C13.7157 13.789 13.8 14.0134 13.8 14.2474ZM13.8 10.7178C13.8 10.9518 13.7157 11.1762 13.5656 11.3417C13.4156 11.5072 13.2121 11.6002 13 11.6002C12.7878 11.6002 12.5843 11.5072 12.4343 11.3417C12.2842 11.1762 12.2 10.9518 12.2 10.7178C12.2 10.4837 12.2842 10.2593 12.4343 10.0938C12.5843 9.9283 12.7878 9.83533 13 9.83533C13.2121 9.83533 13.4156 9.9283 13.5656 10.0938C13.7157 10.2593 13.8 10.4837 13.8 10.7178ZM9.79995 14.2474C9.79995 14.4815 9.71567 14.7059 9.56564 14.8714C9.41561 15.0369 9.21212 15.1299 8.99995 15.1299C8.78778 15.1299 8.5843 15.0369 8.43427 14.8714C8.28424 14.7059 8.19995 14.4815 8.19995 14.2474C8.19995 14.0134 8.28424 13.789 8.43427 13.6235C8.5843 13.458 8.78778 13.365 8.99995 13.365C9.21212 13.365 9.41561 13.458 9.56564 13.6235C9.71567 13.789 9.79995 14.0134 9.79995 14.2474ZM9.79995 10.7178C9.79995 10.9518 9.71567 11.1762 9.56564 11.3417C9.41561 11.5072 9.21212 11.6002 8.99995 11.6002C8.78778 11.6002 8.5843 11.5072 8.43427 11.3417C8.28424 11.1762 8.19995 10.9518 8.19995 10.7178C8.19995 10.4837 8.28424 10.2593 8.43427 10.0938C8.5843 9.9283 8.78778 9.83533 8.99995 9.83533C9.21212 9.83533 9.41561 9.9283 9.56564 10.0938C9.71567 10.2593 9.79995 10.4837 9.79995 10.7178ZM5.79995 14.2474C5.79995 14.4815 5.71567 14.7059 5.56564 14.8714C5.41561 15.0369 5.21212 15.1299 4.99995 15.1299C4.78778 15.1299 4.5843 15.0369 4.43427 14.8714C4.28424 14.7059 4.19995 14.4815 4.19995 14.2474C4.19995 14.0134 4.28424 13.789 4.43427 13.6235C4.5843 13.458 4.78778 13.365 4.99995 13.365C5.21212 13.365 5.41561 13.458 5.56564 13.6235C5.71567 13.789 5.79995 14.0134 5.79995 14.2474ZM5.79995 10.7178C5.79995 10.9518 5.71567 11.1762 5.56564 11.3417C5.41561 11.5072 5.21212 11.6002 4.99995 11.6002C4.78778 11.6002 4.5843 11.5072 4.43427 11.3417C4.28424 11.1762 4.19995 10.9518 4.19995 10.7178C4.19995 10.4837 4.28424 10.2593 4.43427 10.0938C4.5843 9.9283 4.78778 9.83533 4.99995 9.83533C5.21212 9.83533 5.41561 9.9283 5.56564 10.0938C5.71567 10.2593 5.79995 10.4837 5.79995 10.7178Z" fill="#B3B3B3"/>
</svg>
