<svg xmlns="http://www.w3.org/2000/svg" width="212" height="212" viewBox="0 0 212 212" fill="none">
  <g clip-path="url(#clip0_454_5194)">
    <mask id="mask0_454_5194" style="mask-type:luminance" maskUnits="userSpaceOnUse" x="0" y="0" width="212" height="212">
      <path d="M212 0H0V212H212V0Z" fill="white"/>
    </mask>
    <g mask="url(#mask0_454_5194)">
      <g opacity="0.272727">
        <path d="M116.79 55.706C116.79 57.5673 115.281 59.0762 113.42 59.0762C111.559 59.0762 110.05 57.5673 110.05 55.706C110.05 53.8448 111.559 52.3359 113.42 52.3359C115.281 52.3359 116.79 53.8448 116.79 55.706Z" fill="#40AF80"/>
      </g>
      <g opacity="0.61996">
        <path d="M90.2653 63.6577L88.2639 64.8132C87.9015 65.0224 87.4382 64.8982 87.229 64.5359L83.6151 58.2763C83.4058 57.914 83.53 57.4507 83.8923 57.2416L85.8938 56.086C86.2561 55.8768 86.7194 56.0009 86.9287 56.3632L90.5426 62.6228C90.7518 62.9852 90.6276 63.4484 90.2653 63.6577Z" fill="#F5A020"/>
      </g>
      <g opacity="0.61996">
        <path d="M56.5236 77.257L56.9738 77.4097C57.4843 77.5829 58.0473 77.4936 58.4793 77.1712L58.8604 76.8869C59.9483 76.075 61.4951 76.8631 61.4778 78.2205L61.4717 78.6959C61.4648 79.2349 61.7235 79.7428 62.1636 80.0541L62.5518 80.3286C63.6602 81.1124 63.3886 82.8269 62.0923 83.2299L61.6382 83.371C61.1235 83.531 60.7206 83.9341 60.5606 84.4489L60.4194 84.9029C60.0164 86.1992 58.3019 86.4707 57.5181 85.3624L57.2434 84.9743C56.9322 84.5341 56.4243 84.2753 55.8853 84.2823L55.4099 84.2882C54.0525 84.3056 53.2645 82.759 54.0764 81.6709L54.3608 81.2899C54.6832 80.8579 54.7723 80.2949 54.5992 79.7844L54.4465 79.3342C54.0106 78.0485 55.2379 76.8211 56.5236 77.257Z" fill="#00C2E2"/>
      </g>
      <g opacity="0.61996">
        <path d="M53.3277 101.127L53.8331 103.382C53.9247 103.79 53.668 104.196 53.2596 104.287L46.2068 105.868C45.7986 105.96 45.3934 105.703 45.3018 105.295L44.7963 103.039C44.7049 102.631 44.9616 102.226 45.3698 102.135L52.4228 100.554C52.831 100.462 53.2361 100.719 53.3277 101.127Z" fill="#00C2E2"/>
      </g>
      <g opacity="0.61996">
        <path d="M60.4883 129.979C60.4883 131.841 58.9795 133.349 57.1183 133.349C55.257 133.349 53.7483 131.841 53.7483 129.979C53.7483 128.118 55.257 126.609 57.1183 126.609C58.9795 126.609 60.4883 128.118 60.4883 129.979Z" fill="#60C250"/>
      </g>
      <g opacity="0.61996">
        <path d="M56.5236 146.57L56.9738 146.722C57.4843 146.895 58.0473 146.806 58.4793 146.484L58.8604 146.199C59.9483 145.388 61.4951 146.176 61.4778 147.533L61.4717 148.008C61.4648 148.547 61.7235 149.055 62.1636 149.367L62.5518 149.641C63.6602 150.425 63.3886 152.139 62.0923 152.542L61.6382 152.684C61.1235 152.844 60.7206 153.247 60.5606 153.761L60.4194 154.215C60.0164 155.512 58.3019 155.783 57.5181 154.675L57.2434 154.287C56.9322 153.847 56.4243 153.588 55.8853 153.595L55.4099 153.601C54.0525 153.618 53.2645 152.072 54.0764 150.984L54.3608 150.602C54.6832 150.17 54.7723 149.607 54.5992 149.097L54.4465 148.647C54.0106 147.361 55.2379 146.134 56.5236 146.57Z" fill="#60C250"/>
      </g>
      <g opacity="0.61996">
        <path d="M143.27 74.048C142.249 72.7169 142.565 70.7342 143.971 69.6556C145.376 68.5771 147.374 68.7848 148.395 70.1159C148.397 70.1184 148.399 70.1209 148.401 70.1234" stroke="#FB0511" stroke-width="5" stroke-linecap="round" stroke-linejoin="round"/>
      </g>
      <g opacity="0.61996">
        <path d="M152.359 92.4094L152.809 92.5621C153.32 92.7352 153.883 92.646 154.315 92.3236L154.696 92.0393C155.784 91.2274 157.33 92.0154 157.313 93.3729L157.307 93.8482C157.3 94.3873 157.559 94.8952 157.999 95.2064L158.387 95.4809C159.496 96.2648 159.224 97.9792 157.928 98.3822L157.474 98.5234C156.959 98.6834 156.556 99.0865 156.396 99.6012L156.255 100.055C155.852 101.352 154.137 101.623 153.353 100.515L153.079 100.127C152.768 99.6865 152.26 99.4277 151.721 99.4346L151.245 99.4407C149.888 99.4579 149.1 97.9113 149.912 96.8234L150.196 96.4423C150.518 96.0103 150.608 95.4473 150.434 94.9367L150.282 94.4865C149.846 93.2008 151.073 91.9734 152.359 92.4094Z" fill="#60C250"/>
      </g>
      <g opacity="0.61996">
        <path d="M155.506 132.348C157.798 132.649 159.421 134.889 159.103 137.309C158.784 139.729 156.636 141.472 154.345 141.171C154.34 141.17 154.336 141.17 154.332 141.169" stroke="#00C2E2" stroke-width="5" stroke-linecap="round" stroke-linejoin="round"/>
      </g>
      <g opacity="0.61996">
        <path d="M148.287 160.779L146.285 161.934C145.923 162.143 145.459 162.019 145.25 161.657L141.636 155.398C141.427 155.035 141.551 154.572 141.914 154.363L143.915 153.207C144.277 152.998 144.741 153.122 144.95 153.484L148.564 159.744C148.773 160.106 148.649 160.57 148.287 160.779Z" fill="#FB0511"/>
      </g>
      <g opacity="0.61996">
        <path d="M82.6921 164.429C81.2851 162.595 81.7207 159.863 83.6573 158.377C85.5939 156.892 88.3452 157.178 89.7523 159.012L89.7603 159.022" stroke="#40AF80" stroke-width="5" stroke-linecap="round" stroke-linejoin="round"/>
      </g>
      <g opacity="0.2">
        <path d="M160.785 108.411C160.785 139.46 135.615 164.63 104.566 164.63C73.5165 164.63 48.3461 139.46 48.3461 108.411C48.3461 77.3616 73.5165 52.1914 104.566 52.1914C135.615 52.1914 160.785 77.3616 160.785 108.411Z" fill="#F5A020"/>
      </g>
      <path d="M143.509 108.413C143.509 129.921 126.074 147.356 104.566 147.356C83.0576 147.356 65.6217 129.921 65.6217 108.413C65.6217 86.9044 83.0576 69.4688 104.566 69.4688C126.074 69.4688 143.509 86.9044 143.509 108.413Z" fill="#F5A020"/>
      <path d="M87.3743 108.479L98.7911 119.896L121.757 96.9297" stroke="white" stroke-width="4" stroke-linecap="round" stroke-linejoin="round"/>
    </g>
  </g>
  <defs>
    <clipPath id="clip0_454_5194">
      <rect width="212" height="212" fill="white"/>
    </clipPath>
  </defs>
</svg>