<svg width="18" height="18" viewBox="0 0 18 18" fill="none" xmlns="http://www.w3.org/2000/svg">
<g clip-path="url(#clip0_43_3414)">
<path d="M9.75 1.53525C9.50066 1.51212 9.2504 1.50036 9 1.5C4.8585 1.5 1.5 4.713 1.5 8.67525C1.5 10.5787 2.27475 12.309 3.53925 13.5922C3.8175 13.875 4.0035 14.2612 3.9285 14.6587C3.80641 15.3041 3.52631 15.9091 3.11325 16.4197C4.1946 16.6174 5.31101 16.4437 6.28125 15.927C6.62175 15.7462 6.792 15.6555 6.91275 15.6375C7.0335 15.6195 7.20525 15.651 7.54875 15.7155C8.02725 15.8055 8.51325 15.8505 9 15.8505C12.6225 15.8505 15.7987 13.3927 16.5 10.125M8.997 9H9.003M6 9H6.00675M15.138 2.8425C15.138 3.585 14.5492 4.1865 13.8232 4.1865C13.0972 4.1865 12.5085 3.585 12.5085 2.84325C12.5085 2.10075 13.0972 1.5 13.8232 1.5C14.5492 1.5 15.138 2.1015 15.138 2.8425Z" stroke="#B3B3B3" stroke-width="1.5" stroke-linecap="round" stroke-linejoin="round"/>
<path d="M11.223 7.04695C11.919 5.9527 13.0237 5.5432 13.8232 5.54395C14.6227 5.5447 15.6945 5.9527 16.3905 7.04695C16.4355 7.1182 16.4475 7.20445 16.407 7.2787C16.2442 7.57345 15.7395 8.15845 15.3742 8.1982C14.9557 8.2432 13.8592 8.24995 13.824 8.24995C13.7895 8.24995 12.6585 8.2432 12.2392 8.19745C11.8747 8.15845 11.3692 7.57345 11.2065 7.2787C11.1879 7.24222 11.1796 7.20136 11.1825 7.16053C11.1854 7.11969 11.1994 7.08042 11.223 7.04695Z" stroke="#B3B3B3" stroke-width="1.5" stroke-linecap="round" stroke-linejoin="round"/>
</g>
<defs>
<clipPath id="clip0_43_3414">
<rect width="18" height="18" fill="white"/>
</clipPath>
</defs>
</svg>
