<svg width="18" height="17" viewBox="0 0 18 17" fill="none" xmlns="http://www.w3.org/2000/svg">
<path d="M9 16.4253C13.4183 16.4253 17 12.958 17 8.68074C17 4.40353 13.4183 0.936157 9 0.936157C4.58172 0.936157 1 4.40353 1 8.68074C1 12.958 4.58172 16.4253 9 16.4253Z" stroke="#B3B3B3"/>
<path d="M9.00005 11.7787C10.7674 11.7787 12.2 10.3917 12.2 8.68084C12.2 6.96996 10.7674 5.58301 9.00005 5.58301C7.23274 5.58301 5.80005 6.96996 5.80005 8.68084C5.80005 10.3917 7.23274 11.7787 9.00005 11.7787Z" stroke="#B3B3B3"/>
<path d="M11.3999 6.35736L14.5999 3.25952M3.3999 14.1019L6.5999 11.0041M6.5999 6.35736L3.3999 3.25952M14.5999 14.1019L11.3999 11.0041" stroke="#B3B3B3"/>
</svg>
