<svg width="18" height="19" viewBox="0 0 18 19" fill="none" xmlns="http://www.w3.org/2000/svg">
<path d="M4.88551 2.17261C3.90751 2.26936 3.24901 2.48686 2.75701 2.97961C1.87576 3.86236 1.87576 5.28361 1.87576 8.12686V11.1419C1.87576 13.9844 1.87576 15.4064 2.75701 16.2899C3.63826 17.1734 5.05726 17.1726 7.89451 17.1726H9.39976C12.237 17.1726 13.656 17.1726 14.5373 16.2899C15.3375 15.4874 15.4118 14.2521 15.4185 11.9054" stroke="#B3B3B3" stroke-width="1.5" stroke-linecap="round" stroke-linejoin="round"/>
<path d="M7.8945 5.92261L8.64675 8.54761C9.06675 9.38011 9.594 9.59761 10.9042 9.67261C11.946 9.64711 12.5505 9.52411 13.0665 9.07561C13.4182 8.76961 13.5772 8.30836 13.6545 7.84936L13.9125 6.29761M15.7935 4.79761V8.54761M6.45075 4.37236C7.641 3.38461 8.7015 2.85436 10.9012 2.27086C11.1494 2.20534 11.4105 2.20663 11.658 2.27461C13.605 2.81011 14.6565 3.28561 16.065 4.34311C16.125 4.38811 16.143 4.47211 16.101 4.53436C15.6412 5.21086 14.6145 5.75911 12.096 6.73561C11.5714 6.93746 10.9901 6.93424 10.4677 6.72661C7.78575 5.66161 6.55275 5.09161 6.40275 4.49986C6.39787 4.47624 6.3998 4.45173 6.40829 4.42916C6.41679 4.40659 6.43151 4.3869 6.45075 4.37236Z" stroke="#B3B3B3" stroke-width="1.5" stroke-linecap="round" stroke-linejoin="round"/>
</svg>
