<svg width="16" height="17" viewBox="0 0 16 17" fill="none" xmlns="http://www.w3.org/2000/svg">
<path d="M8.78432 12.2241C8.78432 12.3742 8.73832 12.521 8.65213 12.6459C8.56595 12.7707 8.44346 12.8681 8.30015 12.9255C8.15683 12.983 7.99913 12.998 7.84699 12.9687C7.69485 12.9394 7.5551 12.8671 7.44541 12.7609C7.33572 12.6548 7.26102 12.5195 7.23076 12.3722C7.2005 12.2249 7.21603 12.0722 7.27539 11.9335C7.33475 11.7948 7.43528 11.6762 7.56426 11.5927C7.69324 11.5093 7.84488 11.4648 8 11.4648C8.20801 11.4648 8.40751 11.5448 8.5546 11.6872C8.70168 11.8296 8.78432 12.0227 8.78432 12.2241ZM8 4.17576C6.35294 4.17576 5.01961 5.33365 5.01961 6.75729V7.061C5.01961 7.18182 5.06919 7.29769 5.15744 7.38313C5.2457 7.46856 5.36539 7.51656 5.4902 7.51656C5.61501 7.51656 5.7347 7.46856 5.82295 7.38313C5.91121 7.29769 5.96079 7.18182 5.96079 7.061V6.75729C5.96079 5.83629 6.8753 5.08689 8 5.08689C9.12471 5.08689 10.0392 5.83629 10.0392 6.75729C10.0392 7.67828 9.12471 8.42769 8 8.42769C7.87519 8.42769 7.7555 8.47568 7.66725 8.56112C7.57899 8.64655 7.52941 8.76243 7.52941 8.88325V9.49067C7.52941 9.61149 7.57899 9.72737 7.66725 9.8128C7.7555 9.89824 7.87519 9.94623 8 9.94623C8.12481 9.94623 8.24451 9.89824 8.33276 9.8128C8.42101 9.72737 8.47059 9.61149 8.47059 9.49067V9.30692C9.89098 9.11103 10.9804 8.04198 10.9804 6.75729C10.9804 5.33365 9.64706 4.17576 8 4.17576ZM16 8.27583C16 9.80757 15.5308 11.3049 14.6518 12.5785C13.7727 13.8521 12.5233 14.8447 11.0615 15.4309C9.59966 16.0171 7.99113 16.1704 6.43928 15.8716C4.88743 15.5728 3.46197 14.8352 2.34315 13.7521C1.22433 12.669 0.462403 11.289 0.153721 9.78673C-0.15496 8.28442 0.00346614 6.72725 0.608967 5.31211C1.21447 3.89697 2.23985 2.68743 3.55544 1.83645C4.87103 0.985462 6.41775 0.53125 8 0.53125C10.121 0.533661 12.1544 1.35038 13.6541 2.80225C15.1539 4.25412 15.9975 6.22258 16 8.27583ZM15.0588 8.27583C15.0588 6.9243 14.6448 5.60312 13.8692 4.47937C13.0936 3.35561 11.9911 2.47975 10.7013 1.96254C9.41146 1.44534 7.99217 1.31001 6.62289 1.57368C5.25362 1.83735 3.99585 2.48817 3.00866 3.44385C2.02147 4.39953 1.34918 5.61713 1.07681 6.94269C0.804447 8.26825 0.944235 9.64223 1.4785 10.8909C2.01277 12.1395 2.91751 13.2068 4.07833 13.9576C5.23915 14.7085 6.6039 15.1093 8 15.1093C9.87148 15.1073 11.6657 14.3867 12.989 13.1056C14.3124 11.8245 15.0567 10.0876 15.0588 8.27583Z" fill="#B3B3B3"/>
</svg>
