<svg width="51" height="35" viewBox="0 0 51 35" fill="none" xmlns="http://www.w3.org/2000/svg">
<path d="M50.2907 13.0709C50.2775 12.7899 50.2433 12.5135 50.2166 12.2355C50.1833 11.9516 50.13 11.6442 50.0835 11.3514L50.0651 11.2404L50.0473 11.1574L50.0124 10.992L49.9416 10.662L49.9234 10.5797L49.8981 10.4647L49.8855 10.4179L49.8358 10.2298L49.7354 9.85432C49.5947 9.35463 49.4382 8.85528 49.2511 8.36281C48.8819 7.37656 48.4151 6.4088 47.8275 5.50197C47.2375 4.59839 46.5412 3.7519 45.7401 3.03347C44.939 2.31704 44.0559 1.71422 43.1375 1.27379C42.2241 0.821874 41.2873 0.520813 40.3808 0.331752C39.4736 0.136077 38.5944 0.0622804 37.762 0.0514459C36.929 0.0398716 36.1417 0.104444 35.4032 0.208525C33.9259 0.418689 32.6428 0.787282 31.5492 1.19112C30.4553 1.5943 29.5471 2.02647 28.8228 2.41947C28.4598 2.61445 28.1426 2.79859 27.8715 2.9679C27.5994 3.13359 27.3738 3.2851 27.193 3.40994C26.8309 3.65931 26.6501 3.80916 26.6501 3.80916L27.3119 3.71761C27.526 3.69159 27.7898 3.65896 28.1001 3.62076C28.4097 3.58751 28.7635 3.54831 29.1578 3.51106C29.9474 3.44027 30.8984 3.36778 31.9699 3.34737C33.0404 3.32896 34.2325 3.35429 35.4711 3.50749C36.707 3.658 37.992 3.94192 39.162 4.44492C40.3376 4.94331 41.3617 5.66866 42.1677 6.62093C42.9725 7.57685 43.5868 8.77718 44.0098 10.1778C44.1128 10.5276 44.2117 10.886 44.2953 11.2546L44.3556 11.5332L44.3823 11.6555L44.3856 11.6749L44.4001 11.7582L44.4607 12.0903L44.491 12.2563L44.5062 12.339L44.5118 12.3956C44.5252 12.5491 44.548 12.6871 44.5621 12.8521C44.5704 13.0245 44.5901 13.1974 44.5971 13.368C44.5971 13.538 44.6115 13.7093 44.605 13.8779L44.5967 14.1302C44.5964 14.2149 44.5924 14.2986 44.5822 14.3816C44.4893 15.7143 44.1006 16.9917 43.406 18.2079C42.7198 19.423 41.7682 20.5723 40.6891 21.6102C39.609 22.6495 38.4169 23.586 37.2221 24.4276C36.0261 25.2695 34.8271 26.0202 33.6923 26.6935C32.5572 27.3671 31.4821 27.9564 30.5186 28.4795C29.5534 28.9983 28.6963 29.441 27.9848 29.807L25.7212 30.9556C25.7212 30.9556 25.9557 30.974 26.3942 30.9773C26.6135 30.9797 26.884 30.979 27.2008 30.9685C27.5191 30.9619 27.883 30.9428 28.2905 30.9144C29.1064 30.8604 30.093 30.7533 31.2205 30.5739C32.3477 30.3923 33.6136 30.1308 34.9799 29.748C36.3456 29.3643 37.8137 28.8626 39.3316 28.1827C40.8482 27.5015 42.4184 26.6408 43.9462 25.5047C45.4663 24.3677 46.9592 22.9377 48.143 21.1125C48.7323 20.203 49.2429 19.1981 49.6056 18.1203C49.9775 17.0467 50.2024 15.9074 50.2831 14.7696C50.2963 14.6273 50.3022 14.485 50.3039 14.343L50.3125 13.9171C50.3181 13.6332 50.2986 13.3529 50.2907 13.0709Z" fill="url(#paint0_linear_43_3454)"/>
<path d="M5.08386 19.002C5.20179 19.7724 5.38658 20.5339 5.63989 21.2653C5.74332 21.5726 5.85235 21.8732 5.97851 22.1684C6.29407 22.908 6.67749 23.6072 7.0988 24.2572C8.28266 26.0824 9.77746 27.5126 11.2973 28.6497C12.8251 29.7858 14.3963 30.6462 15.9128 31.3273C17.431 32.0076 18.8992 32.5089 20.2652 32.8927C20.7606 33.0317 24.9199 31.7282 24.7269 31.6245C23.7634 31.1014 22.6886 30.413 21.5531 29.739C21.0706 29.4527 18.7108 27.9573 18.0236 27.4734C16.8289 26.6317 15.6365 25.7148 14.5564 24.6759C13.4776 23.6379 11.2934 20.6479 11.1063 19.002" fill="url(#paint1_linear_43_3454)"/>
<path d="M24.0253 8.52737C24.3379 8.75372 24.6142 8.99382 24.8432 9.24288C26.3673 10.903 27.3848 12.4295 27.5123 14.6117H32.0027C31.7622 11.4818 30.5227 8.77051 28.2478 6.47785C27.8015 6.03159 27.3512 5.63102 26.8933 5.27161C26.8317 5.31242 26.7718 5.35332 26.7125 5.39449C25.7767 6.10234 24.8873 7.19894 24.0253 8.52737Z" fill="url(#paint2_linear_43_3454)"/>
<path d="M28.0587 33.5638L26.8234 32.9237C26.605 32.8094 26.3797 32.6908 26.1459 32.5667C25.0028 33.1968 23.8091 33.6425 22.5646 33.904C23.3858 34.0954 24.1612 34.244 24.8797 34.3595C26.0072 34.5394 26.9937 34.6462 27.8097 34.7002C28.2171 34.7288 28.5811 34.7476 28.899 34.7542C29.2162 34.7647 29.4866 34.7654 29.706 34.7634C30.1444 34.7598 30.3786 34.7417 30.3786 34.7417L28.115 33.593L28.0587 33.5638Z" fill="url(#paint3_linear_43_3454)"/>
<path d="M26.8928 5.27201L26.903 5.26509L26.8967 5.26044C26.8348 5.3036 26.7732 5.34842 26.7119 5.39489C26.7712 5.35368 26.8311 5.31283 26.8928 5.27201Z" fill="#525252"/>
<path d="M18.9413 7.16614C18.9413 7.16614 21.564 7.05053 23.797 8.41094C24.2127 7.31504 24.9785 5.53926 25.8864 4.57842C23.8368 3.26213 21.5212 2.60236 18.9291 2.60236C17.7591 2.60236 16.647 2.73737 15.591 3.00685C15.591 3.00685 14.3587 3.21862 12.0602 4.39558C11.1537 4.85938 10.2603 5.43848 9.45923 6.15522C8.65813 6.87365 7.96244 7.72022 7.37282 8.62341C6.78518 9.53059 6.31875 10.4984 5.94949 11.4846C5.76239 11.977 5.60593 12.4764 5.46527 12.9761L5.36514 13.3513L5.3154 13.5393L5.30288 13.5865L5.27785 13.7014L5.2594 13.7837L5.18891 14.1138L5.15366 14.2792L5.08877 14.6122L3.07449 14.6125C3.07449 14.6125 2.32775 14.5961 2.08432 14.6689C2.08432 14.6689 1.71111 14.7209 1.33725 15.0744C1.33725 15.0744 1.04243 15.328 0.978862 15.5312C0.978862 15.5312 0.868183 15.7477 0.878066 16.1755V19.0018H29.8055C30.4327 19.0018 30.9334 19.0205 31.3593 18.6905C31.856 18.3051 32.0023 18.0657 32.0023 17.4384V14.6122H10.4138C10.5551 12.4178 11.4455 10.7665 13.0843 9.22919C13.0843 9.22919 14.9895 7.29859 18.9413 7.16614Z" fill="#84AA43"/>
<defs>
<linearGradient id="paint0_linear_43_3454" x1="25.7212" y1="15.5143" x2="50.3135" y2="15.5143" gradientUnits="userSpaceOnUse">
<stop stop-color="#DD5000"/>
<stop offset="1" stop-color="#FE9E2C"/>
</linearGradient>
<linearGradient id="paint1_linear_43_3454" x1="5.08386" y1="25.9525" x2="24.7334" y2="25.9525" gradientUnits="userSpaceOnUse">
<stop stop-color="#DD5000"/>
<stop offset="1" stop-color="#FE9E2C"/>
</linearGradient>
<linearGradient id="paint2_linear_43_3454" x1="24.0253" y1="9.94165" x2="32.0027" y2="9.94165" gradientUnits="userSpaceOnUse">
<stop stop-color="#DD5000"/>
<stop offset="1" stop-color="#FE9E2C"/>
</linearGradient>
<linearGradient id="paint3_linear_43_3454" x1="22.5646" y1="33.6655" x2="30.3786" y2="33.6655" gradientUnits="userSpaceOnUse">
<stop stop-color="#DD5000"/>
<stop offset="1" stop-color="#FE9E2C"/>
</linearGradient>
</defs>
</svg>
