<svg width="21" height="21" viewBox="0 0 21 21" fill="none" xmlns="http://www.w3.org/2000/svg">
<path d="M1 10.2455C1 8.63788 1 7.83408 1.37186 7.12735C1.74507 6.42062 2.444 5.89857 3.84321 4.85209L5.20036 3.83757C7.73143 1.94704 8.99357 1 10.5 1C12.0064 1 13.2699 1.94586 15.7996 3.83639L17.1568 4.8509C18.5546 5.89738 19.2549 6.41944 19.6268 7.12617C20 7.8329 20 8.6367 20 10.2443V15.2648C20 17.4974 20 18.6126 19.2047 19.3063C18.4094 20 17.131 20 14.5714 20H6.42857C3.869 20 2.59057 20 1.79529 19.3063C1 18.6126 1 17.4974 1 15.2648V10.2455Z" stroke="#B3B3B3" stroke-width="2"/>
<path d="M13.8928 20V14.081C13.8928 13.7671 13.7498 13.4659 13.4953 13.2439C13.2408 13.0219 12.8956 12.8972 12.5357 12.8972H8.46426C8.10432 12.8972 7.75913 13.0219 7.50461 13.2439C7.2501 13.4659 7.10712 13.7671 7.10712 14.081V20" stroke="#B3B3B3" stroke-width="2" stroke-linecap="round" stroke-linejoin="round"/>
</svg>
