<svg width="24" height="24" viewBox="0 0 24 24" fill="none" xmlns="http://www.w3.org/2000/svg">
<path d="M22.75 6V18C22.7489 19.2595 22.2482 20.467 21.3576 21.3576C20.467 22.2482 19.2595 22.7489 18 22.75H6C5.47235 22.7515 4.94826 22.6636 4.45 22.49C3.51588 22.1674 2.70561 21.5615 2.13204 20.7567C1.55847 19.9519 1.25015 18.9883 1.25 18V6C1.25106 4.74055 1.75184 3.53298 2.64241 2.64241C3.53298 1.75184 4.74055 1.25106 6 1.25H18C19.2595 1.25106 20.467 1.75184 21.3576 2.64241C22.2482 3.53298 22.7489 4.74055 22.75 6Z" fill="#E1F5FE"/>
<path d="M14.75 19V22.75H6C5.47235 22.7515 4.94826 22.6636 4.45 22.49C3.51588 22.1674 2.70561 21.5615 2.13204 20.7567C1.55847 19.9519 1.25015 18.9882 1.25 18V15.27L4.41 13.16C4.88229 12.8439 5.44129 12.6827 6.00937 12.6989C6.57745 12.715 7.1264 12.9076 7.58 13.25L11.07 15.87L14.45 18.4C14.5438 18.4692 14.6199 18.5597 14.672 18.664C14.7241 18.7683 14.7509 18.8834 14.75 19Z" fill="#62D8B6"/>
<path d="M8.625 9.125C10.0057 9.125 11.125 8.00571 11.125 6.625C11.125 5.24429 10.0057 4.125 8.625 4.125C7.24429 4.125 6.125 5.24429 6.125 6.625C6.125 8.00571 7.24429 9.125 8.625 9.125Z" fill="#FFDE76"/>
<path d="M22.75 13.04V18C22.7489 19.2595 22.2481 20.467 21.3575 21.3576C20.467 22.2482 19.2594 22.7489 18 22.75H5.99995C5.47231 22.7515 4.94821 22.6636 4.44995 22.49L15.45 11.49C15.8563 11.0806 16.3815 10.8099 16.9507 10.7165C17.5199 10.6231 18.1041 10.7118 18.62 10.97L22.75 13.04Z" fill="#4CC19D"/>
</svg>
