<svg width="16" height="17" viewBox="0 0 16 17" fill="none" xmlns="http://www.w3.org/2000/svg">
<path d="M8 16.3614C6.89897 16.3614 5.86193 16.1577 4.88889 15.7504C3.91586 15.3425 3.06845 14.7889 2.34667 14.0896C1.62489 13.3903 1.05304 12.57 0.631116 11.6286C0.20919 10.6872 -0.00118021 9.68323 4.97977e-06 8.61677C4.97977e-06 7.54745 0.210375 6.54266 0.631116 5.60241C1.05245 4.66159 1.6243 3.8421 2.34667 3.14394C3.06904 2.44578 3.91645 1.89218 4.88889 1.48315C5.86193 1.07585 6.89897 0.872192 8 0.872192C9.1046 0.872192 10.1425 1.07585 11.1138 1.48315C12.0856 1.89104 12.9324 2.44463 13.6542 3.14394C14.376 3.84324 14.9476 4.66273 15.3689 5.60241C15.7896 6.54323 16 7.54802 16 8.61677C16 9.68266 15.7896 10.6866 15.3689 11.6286C14.9476 12.5705 14.3757 13.3909 13.6533 14.0896C12.931 14.7883 12.0844 15.3419 11.1138 15.7504C10.1431 16.1589 9.10519 16.3625 8 16.3614ZM8 15.5077C8.52148 14.8589 8.95171 14.2218 9.29067 13.5965C9.62904 12.9712 9.9043 12.2714 10.1164 11.4969H5.88356C6.11882 12.315 6.39971 13.0366 6.72623 13.6619C7.05334 14.2872 7.47793 14.9025 8 15.5077ZM6.86845 15.3787C6.45363 14.9054 6.07497 14.3202 5.73245 13.6232C5.38993 12.9268 5.13511 12.2177 4.968 11.496H1.55912C2.06875 12.5659 2.79082 13.4437 3.72534 14.1292C4.66045 14.8142 5.70815 15.2306 6.86845 15.3787ZM9.13156 15.3787C10.2919 15.2306 11.3396 14.8142 12.2747 14.1292C13.2092 13.4437 13.9313 12.5659 14.4409 11.496H11.0329C10.8077 12.2286 10.5241 12.9431 10.1822 13.6396C9.83971 14.3366 9.48948 14.9168 9.13156 15.3787ZM1.19645 10.6364H4.78311C4.71556 10.283 4.66815 9.9388 4.64089 9.60378C4.61245 9.26933 4.59823 8.94033 4.59823 8.61677C4.59823 8.29322 4.61215 7.96422 4.64 7.62977C4.66786 7.29532 4.71526 6.95112 4.78223 6.59716H1.19734C1.10075 6.89547 1.02519 7.22046 0.970671 7.57212C0.916153 7.9232 0.888894 8.27142 0.888894 8.61677C0.888894 8.96212 0.915857 9.31063 0.969783 9.66229C1.02371 10.014 1.09926 10.3384 1.19645 10.6355M5.672 10.6355H10.328C10.3956 10.2827 10.443 9.94425 10.4702 9.62013C10.4987 9.29658 10.5129 8.96212 10.5129 8.61677C10.5129 8.27142 10.499 7.93697 10.4711 7.61342C10.4433 7.28987 10.3959 6.9514 10.3289 6.59802H5.67111C5.60415 6.95083 5.55674 7.2893 5.52889 7.61342C5.50104 7.93697 5.48711 8.27142 5.48711 8.61677C5.48711 8.96212 5.50104 9.29658 5.52889 9.62013C5.55674 9.94368 5.60504 10.2821 5.672 10.6355ZM11.2178 10.6355H14.8036C14.9001 10.3378 14.9757 10.0134 15.0302 9.66229C15.0841 9.31063 15.1111 8.96212 15.1111 8.61677C15.1111 8.27142 15.0841 7.92292 15.0302 7.57126C14.9763 7.21959 14.9007 6.89518 14.8036 6.59802H11.2169C11.2844 6.95083 11.3319 7.29474 11.3591 7.62977C11.3876 7.9648 11.4018 8.2938 11.4018 8.61677C11.4018 8.93975 11.3879 9.26875 11.36 9.60378C11.3321 9.9388 11.2847 10.283 11.2178 10.6364M11.0329 5.73751H14.4409C13.92 4.64524 13.2065 3.76752 12.3004 3.10435C11.3944 2.44119 10.3381 2.01925 9.13156 1.83854C9.54637 2.3669 9.91941 2.97126 10.2507 3.65164C10.5819 4.33144 10.8427 5.02673 11.0329 5.73751ZM5.88356 5.73751H10.1164C9.88178 4.92978 9.5923 4.19949 9.248 3.54665C8.90371 2.89381 8.48771 2.28687 8 1.72582C7.5123 2.2863 7.0963 2.89324 6.752 3.54665C6.40771 4.20007 6.11763 4.93035 5.88356 5.73751ZM1.56 5.73751H4.968C5.15823 5.0273 5.41897 4.33201 5.75023 3.65164C6.08148 2.97126 6.45452 2.3669 6.86934 1.83854C5.65215 2.01982 4.59319 2.44434 3.69245 3.1121C2.79171 3.781 2.0806 4.65585 1.55912 5.73665" fill="#B3B3B3"/>
</svg>
