<svg width="28" height="28" viewBox="0 0 28 28" fill="none" xmlns="http://www.w3.org/2000/svg">
<path opacity="0.5" d="M21.875 10.5V11.3213C21.875 12.3071 22.1549 13.2708 22.6823 14.091L23.9749 16.1011C25.1544 17.9375 24.2538 20.433 22.2016 21.0128C16.8393 22.5314 11.1606 22.5314 5.79828 21.0128C3.74612 20.433 2.84545 17.9375 4.02495 16.1011L5.31762 14.091C5.84637 13.264 6.12695 12.3028 6.12612 11.3213V10.5C6.12612 5.98965 9.65178 2.33331 13.9999 2.33331C18.3481 2.33331 21.875 5.98965 21.875 10.5Z" fill="#777777"/>
<path d="M8.4502 21.6359C8.8314 22.8073 9.57356 23.8281 10.5704 24.552C11.5672 25.2759 12.7675 25.6658 13.9994 25.6658C15.2314 25.6658 16.4317 25.2759 17.4285 24.552C18.4253 23.8281 19.1675 22.8073 19.5487 21.6359C15.8795 22.3242 12.1205 22.3242 8.4502 21.6359Z" fill="#434343"/>
</svg>
