<svg width="17" height="18" viewBox="0 0 17 18" fill="none" xmlns="http://www.w3.org/2000/svg">
<g filter="url(#filter0_b_43_3431)">
<path d="M16.15 18H0.85C0.417888 18 0.0550233 17.6894 0.00595 17.2775L0 17.1819V15.3634C0 14.2422 0.439214 13.1712 1.23675 12.3477C2.03182 11.5267 3.11403 11.0216 4.284 10.9254L4.47525 10.9132L4.675 10.9092H12.325C13.5005 10.9092 14.6237 11.3271 15.4878 12.0858C16.3503 12.8431 16.8813 13.8748 16.983 14.9908L16.9958 15.1731L17 15.3634V17.1819C17 17.5975 16.6773 17.9467 16.2494 17.9943L16.15 18ZM4.69455 12.5454L4.5339 12.5486C3.00406 12.6159 1.78757 13.7598 1.70425 15.2095L1.7 15.3634V16.3638H15.3V15.3829L15.2966 15.2306C15.2258 13.7813 14.0189 12.6286 12.489 12.5495L12.325 12.5454H4.69455ZM8.5 8.90928C5.92219 8.90928 3.825 6.91075 3.825 4.45423C3.825 1.99816 5.92219 0 8.5 0C11.0778 0 13.175 1.99816 13.175 4.45423C13.175 6.91075 11.0778 8.90928 8.5 8.90928ZM8.5 1.63622C6.85958 1.63622 5.525 2.90038 5.525 4.45423C5.525 6.00854 6.85958 7.27306 8.5 7.27306C10.1404 7.27306 11.475 6.00854 11.475 4.45423C11.475 2.90038 10.1404 1.63622 8.5 1.63622Z" fill="#B3B3B3"/>
</g>
<defs>
<filter id="filter0_b_43_3431" x="-10" y="-10" width="37" height="38" filterUnits="userSpaceOnUse" color-interpolation-filters="sRGB">
<feFlood flood-opacity="0" result="BackgroundImageFix"/>
<feGaussianBlur in="BackgroundImageFix" stdDeviation="5"/>
<feComposite in2="SourceAlpha" operator="in" result="effect1_backgroundBlur_43_3431"/>
<feBlend mode="normal" in="SourceGraphic" in2="effect1_backgroundBlur_43_3431" result="shape"/>
</filter>
</defs>
</svg>
