<svg width="14" height="19" viewBox="0 0 14 19" fill="none" xmlns="http://www.w3.org/2000/svg">
<path d="M10 0.369751H2C1.46957 0.369751 0.960859 0.602175 0.585786 1.01589C0.210714 1.42961 0 1.99073 0 2.57581V15.8122C0 16.3973 0.210714 16.9584 0.585786 17.3721C0.960859 17.7858 1.46957 18.0182 2 18.0182H10C10.5304 18.0182 11.0391 17.7858 11.4142 17.3721C11.7893 16.9584 12 16.3973 12 15.8122C12.5304 15.8122 13.0391 15.5798 13.4142 15.166C13.7893 14.7523 14 14.1912 14 13.6061V4.78187C14 4.19679 13.7893 3.63567 13.4142 3.22195C13.0391 2.80824 12.5304 2.57581 12 2.57581C12 1.99073 11.7893 1.42961 11.4142 1.01589C11.0391 0.602175 10.5304 0.369751 10 0.369751ZM12 3.67884C12.2652 3.67884 12.5196 3.79505 12.7071 4.00191C12.8946 4.20877 13 4.48933 13 4.78187V13.6061C13 13.8987 12.8946 14.1792 12.7071 14.3861C12.5196 14.5929 12.2652 14.7091 12 14.7091V3.67884ZM1 2.57581C1 2.28327 1.10536 2.00271 1.29289 1.79585C1.48043 1.58899 1.73478 1.47278 2 1.47278H10C10.2652 1.47278 10.5196 1.58899 10.7071 1.79585C10.8946 2.00271 11 2.28327 11 2.57581V15.8122C11 16.1047 10.8946 16.3853 10.7071 16.5921C10.5196 16.799 10.2652 16.9152 10 16.9152H2C1.73478 16.9152 1.48043 16.799 1.29289 16.5921C1.10536 16.3853 1 16.1047 1 15.8122V2.57581Z" fill="#B3B3B3"/>
</svg>
