<svg width="16" height="15" viewBox="0 0 16 15" fill="none" xmlns="http://www.w3.org/2000/svg">
<path fill-rule="evenodd" clip-rule="evenodd" d="M7.21488 0.0946045H8.78512C9.80242 0.0946045 10.6233 0.0946045 11.2685 0.173626C11.9382 0.254674 12.5023 0.430278 12.9503 0.836194C13.1721 1.03814 13.3313 1.26575 13.4467 1.51835C14.1403 1.59669 14.723 1.7696 15.1829 2.18699C15.6309 2.59358 15.8229 3.10554 15.9137 3.7134C16 4.29897 16 5.04393 16 5.96721V8.7431C16 9.66637 16 10.4113 15.9137 10.9969C15.8229 11.6048 15.6309 12.1167 15.1829 12.5233C14.723 12.9407 14.141 13.1136 13.4467 13.1926C13.3313 13.4446 13.1721 13.6722 12.9503 13.8741C12.5023 14.2807 11.9382 14.455 11.2685 14.5374C10.6233 14.6157 9.80242 14.6157 8.78512 14.6157H7.21488C6.19758 14.6157 5.37674 14.6157 4.73153 14.5374C4.06177 14.455 3.49767 14.2807 3.04967 13.8741C2.83584 13.6792 2.66708 13.4475 2.5533 13.1926C1.85972 13.1136 1.27702 12.9407 0.817116 12.5233C0.369116 12.1167 0.177116 11.6048 0.0870698 10.9969C-1.10892e-08 10.4113 0 9.66637 0 8.7431V5.96721C0 5.04393 -1.10892e-08 4.29897 0.0870698 3.7134C0.176372 3.10554 0.369861 2.59358 0.817116 2.18699C1.27702 1.7696 1.85898 1.59669 2.5533 1.51835C2.66724 1.26332 2.83598 1.03143 3.04967 0.836194C3.49767 0.429603 4.06177 0.25535 4.73153 0.173626C5.37674 0.0946045 6.19758 0.0946045 7.21488 0.0946045ZM2.2906 2.58683C1.9654 2.65842 1.76223 2.76243 1.6067 2.90427C1.40056 3.09068 1.2666 3.35273 1.19293 3.84848C1.11777 4.35908 1.11628 5.03515 1.11628 6.00435V8.70595C1.11628 9.67515 1.11777 10.3519 1.19293 10.8618C1.2666 11.3576 1.4013 11.6196 1.6067 11.8067C1.76223 11.9479 1.9654 12.0519 2.29135 12.1235C2.23256 11.5751 2.23256 10.9037 2.23256 10.0939V4.61641C2.23256 3.80728 2.23256 3.13525 2.2906 2.58683ZM13.7094 12.1235C14.0346 12.0519 14.2378 11.9479 14.3933 11.8067C14.5994 11.6196 14.7334 11.3576 14.8071 10.8612C14.8822 10.3519 14.8837 9.67583 14.8837 8.70663V6.00503C14.8837 5.03515 14.8822 4.35908 14.8071 3.84848C14.7334 3.35273 14.5987 3.09068 14.3933 2.90359C14.2378 2.76243 14.0346 2.65842 13.7087 2.58683C13.7674 3.13525 13.7674 3.80728 13.7674 4.61641V10.0939C13.7674 10.903 13.7674 11.5751 13.7094 12.1235ZM4.88037 1.17727C4.33414 1.24414 4.0454 1.36638 3.83926 1.55279C3.63312 1.73988 3.49916 2.00193 3.42549 2.49835C3.35033 3.00693 3.34884 3.68368 3.34884 4.65355V10.0568C3.34884 11.026 3.35033 11.702 3.42549 12.2126C3.49916 12.7084 3.63386 12.9704 3.83926 13.1575C4.0454 13.3446 4.33414 13.4662 4.88112 13.533C5.44223 13.6012 6.18791 13.6026 7.25581 13.6026H8.74419C9.81209 13.6026 10.5578 13.6012 11.1196 13.533C11.6659 13.4662 11.9546 13.3439 12.1607 13.1575C12.3669 12.9704 12.5008 12.7084 12.5745 12.212C12.6497 11.702 12.6512 11.026 12.6512 10.0568V4.65355C12.6512 3.68435 12.6497 3.0076 12.5745 2.49768C12.5008 2.00193 12.3661 1.73988 12.1607 1.55279C11.9546 1.36571 11.6659 1.24414 11.1189 1.17727C10.5578 1.10906 9.81209 1.1077 8.74419 1.1077H7.25581C6.18791 1.1077 5.44223 1.10906 4.88037 1.17727ZM5.2093 5.32895C5.2093 5.19461 5.26811 5.06577 5.37278 4.97077C5.47745 4.87577 5.61941 4.8224 5.76744 4.8224H10.2326C10.3806 4.8224 10.5226 4.87577 10.6272 4.97077C10.7319 5.06577 10.7907 5.19461 10.7907 5.32895C10.7907 5.4633 10.7319 5.59214 10.6272 5.68714C10.5226 5.78213 10.3806 5.8355 10.2326 5.8355H5.76744C5.61941 5.8355 5.47745 5.78213 5.37278 5.68714C5.26811 5.59214 5.2093 5.4633 5.2093 5.32895ZM5.2093 8.03055C5.2093 7.89621 5.26811 7.76736 5.37278 7.67237C5.47745 7.57737 5.61941 7.524 5.76744 7.524H10.2326C10.3806 7.524 10.5226 7.57737 10.6272 7.67237C10.7319 7.76736 10.7907 7.89621 10.7907 8.03055C10.7907 8.1649 10.7319 8.29374 10.6272 8.38874C10.5226 8.48373 10.3806 8.5371 10.2326 8.5371H5.76744C5.61941 8.5371 5.47745 8.48373 5.37278 8.38874C5.26811 8.29374 5.2093 8.1649 5.2093 8.03055ZM5.2093 10.7322C5.2093 10.5978 5.26811 10.469 5.37278 10.374C5.47745 10.279 5.61941 10.2256 5.76744 10.2256H8C8.14803 10.2256 8.28999 10.279 8.39466 10.374C8.49934 10.469 8.55814 10.5978 8.55814 10.7322C8.55814 10.8665 8.49934 10.9953 8.39466 11.0903C8.28999 11.1853 8.14803 11.2387 8 11.2387H5.76744C5.61941 11.2387 5.47745 11.1853 5.37278 11.0903C5.26811 10.9953 5.2093 10.8665 5.2093 10.7322Z" fill="#B3B3B3"/>
</svg>
